<svg width="48" height="48" fill="none" stroke="#050505" stroke-linejoin="round" stroke-width="0.5" viewBox="0 0 24 24" xmlns="http://www.w3.org/2000/svg">
  <path d="M5.532 5.207C8.303 5.07 10.459 5 11.999 5s3.696.07 6.47.207a3 3 0 0 1 2.84 2.747c.127 1.517.19 2.853.19 4.008 0 1.17-.065 2.524-.195 4.064a3 3 0 0 1-2.794 2.741c-2.37.155-4.54.233-6.51.233-1.97 0-4.14-.078-6.51-.233a3 3 0 0 1-2.793-2.74 48.889 48.889 0 0 1-.197-4.065c0-1.145.064-2.482.193-4.01a3 3 0 0 1 2.84-2.745Z"></path>
  <path d="M10.5 9.806v4.398a.429.429 0 0 0 .665.357l3.299-2.18a.429.429 0 0 0 .002-.713L11.168 9.45a.429.429 0 0 0-.668.356Z"></path>
</svg>